<svg width="20" height="20" viewBox="0 0 20 20" fill="none" xmlns="http://www.w3.org/2000/svg">
<path d="M8.33398 11.1111C8.33398 10.8527 8.33398 10.7236 8.3624 10.6177C8.4394 10.3301 8.66407 10.1054 8.95165 10.0284C9.05757 10 9.18673 10 9.44507 10H10.5562C10.8146 10 10.9437 10 11.0497 10.0284C11.3372 10.1054 11.5619 10.3301 11.6389 10.6177C11.6673 10.7236 11.6673 10.8527 11.6673 11.1111V11.6667C11.6673 12.5872 10.9212 13.3333 10.0007 13.3333C9.08015 13.3333 8.33398 12.5872 8.33398 11.6667V11.1111Z" stroke="#9D9D9D" stroke-width="1.25" stroke-linecap="round" stroke-linejoin="round"/>
<path d="M11.584 11.2493H12.5695C13.6396 11.2493 14.1747 11.2493 14.6303 11.1528C15.949 10.8735 17.0248 10.0166 17.4956 8.8706C17.6582 8.47468 17.7246 7.99562 17.8573 7.03743C17.9071 6.67772 17.9321 6.49787 17.9081 6.35076C17.8383 5.9223 17.495 5.57133 17.0324 5.45572C16.8736 5.41602 16.6727 5.41602 16.271 5.41602H3.73033C3.32857 5.41602 3.12769 5.41602 2.96887 5.45572C2.50633 5.57133 2.16296 5.9223 2.09318 6.35076C2.06922 6.49787 2.09414 6.67772 2.14397 7.03743C2.27672 7.99562 2.34308 8.47468 2.50572 8.8706C2.97648 10.0166 4.0523 10.8735 5.37095 11.1528C5.82652 11.2493 6.36163 11.2493 7.43184 11.2493H8.41732" stroke="#9D9D9D" stroke-width="1.25"/>
<path d="M2.91602 9.58301V11.2497C2.91602 14.3923 2.91602 15.9638 3.83809 16.94C4.76016 17.9163 6.24421 17.9163 9.21235 17.9163H10.7863C13.7545 17.9163 15.2385 17.9163 16.1606 16.94C17.0827 15.9638 17.0827 14.3923 17.0827 11.2497V9.58301" stroke="#9D9D9D" stroke-width="1.25" stroke-linecap="round" stroke-linejoin="round"/>
<path d="M12.9173 5.41732L12.8529 5.12298C12.5321 3.65626 12.3717 2.92291 11.9897 2.50344C11.6078 2.08398 11.1006 2.08398 10.0859 2.08398H9.9154C8.90073 2.08398 8.39348 2.08398 8.01156 2.50344C7.62963 2.92291 7.46922 3.65626 7.14838 5.12298L7.08398 5.41732" stroke="#9D9D9D" stroke-width="1.25"/>
</svg>
