<svg width="20" height="20" viewBox="0 0 20 20" fill="none" xmlns="http://www.w3.org/2000/svg">
<path d="M2.49992 8.33337H17.4999" stroke="#9D9D9D" stroke-width="1.25" stroke-linejoin="round"/>
<path d="M12.4999 5H14.1666" stroke="#9D9D9D" stroke-width="1.25" stroke-linecap="round" stroke-linejoin="round"/>
<path d="M17.4999 10.8334V9.16675C17.4999 5.63121 17.4999 3.86345 16.4016 2.7651C15.3032 1.66675 13.5354 1.66675 9.99992 1.66675C6.46438 1.66675 4.69662 1.66675 3.59827 2.7651C2.49992 3.86345 2.49992 5.63121 2.49992 9.16675V10.8334C2.49992 14.3689 2.49992 16.1367 3.59827 17.2351C4.69662 18.3334 6.46438 18.3334 9.99992 18.3334C13.5354 18.3334 15.3032 18.3334 16.4016 17.2351C17.4999 16.1367 17.4999 14.3689 17.4999 10.8334Z" stroke="#9D9D9D" stroke-width="1.25"/>
<path d="M5.83325 11.6667H6.27185M9.78059 11.6667H10.2193M13.728 11.6667H14.1666" stroke="#9D9D9D" stroke-width="1.25" stroke-linecap="round" stroke-linejoin="round"/>
<path d="M5.83325 15H6.27185M9.78059 15H10.2193M13.728 15H14.1666" stroke="#9D9D9D" stroke-width="1.25" stroke-linecap="round" stroke-linejoin="round"/>
</svg>
