<svg width="100" height="100" viewBox="0 0 100 100" fill="none" xmlns="http://www.w3.org/2000/svg">
<rect width="100" height="100" rx="50" fill="#EBF6EE"/>
<path d="M50 17.5C43.5721 17.5 37.2886 19.4061 31.944 22.9772C26.5994 26.5484 22.4338 31.6242 19.9739 37.5628C17.5141 43.5014 16.8705 50.0361 18.1245 56.3404C19.3785 62.6448 22.4738 68.4358 27.019 72.981C31.5643 77.5262 37.3552 80.6215 43.6596 81.8755C49.964 83.1295 56.4986 82.4859 62.4372 80.0261C68.3758 77.5662 73.4516 73.4006 77.0228 68.056C80.5939 62.7114 82.5 56.4279 82.5 50C82.4909 41.3833 79.0639 33.122 72.9709 27.0291C66.878 20.9361 58.6168 17.5091 50 17.5ZM64.2688 44.2688L46.7688 61.7688C46.5366 62.0012 46.2609 62.1856 45.9574 62.3114C45.6539 62.4372 45.3286 62.502 45 62.502C44.6715 62.502 44.3462 62.4372 44.0427 62.3114C43.7392 62.1856 43.4634 62.0012 43.2313 61.7688L35.7313 54.2688C35.2622 53.7996 34.9986 53.1634 34.9986 52.5C34.9986 51.8366 35.2622 51.2004 35.7313 50.7312C36.2004 50.2621 36.8366 49.9986 37.5 49.9986C38.1634 49.9986 38.7997 50.2621 39.2688 50.7312L45 56.4656L60.7313 40.7312C60.9635 40.499 61.2393 40.3147 61.5428 40.189C61.8463 40.0633 62.1715 39.9986 62.5 39.9986C62.8285 39.9986 63.1538 40.0633 63.4573 40.189C63.7607 40.3147 64.0365 40.499 64.2688 40.7312C64.501 40.9635 64.6853 41.2393 64.811 41.5428C64.9367 41.8462 65.0014 42.1715 65.0014 42.5C65.0014 42.8285 64.9367 43.1538 64.811 43.4572C64.6853 43.7607 64.501 44.0365 64.2688 44.2688Z" fill="#34A853"/>
</svg>
