<svg width="20" height="20" viewBox="0 0 20 20" fill="none" xmlns="http://www.w3.org/2000/svg">
<path d="M17.0833 8.74935V8.33268C17.0833 5.18998 17.0833 3.61864 16.107 2.64232C15.1307 1.66602 13.5594 1.66602 10.4166 1.66602H9.58335C6.44071 1.66602 4.86938 1.66602 3.89307 2.64232C2.91676 3.61862 2.91675 5.18995 2.91672 8.33262L2.91669 12.0827C2.91666 14.8222 2.91665 16.192 3.67325 17.1139C3.81179 17.2828 3.96657 17.4375 4.13537 17.5761C5.05733 18.3327 6.4271 18.3327 9.1666 18.3327" stroke="#9D9D9D" stroke-width="1.25" stroke-linecap="round" stroke-linejoin="round"/>
<path d="M6.25 5.83398H13.75" stroke="#9D9D9D" stroke-width="1.25" stroke-linecap="round" stroke-linejoin="round"/>
<path d="M6.25 9.99988H11.25" stroke="#9D9D9D" stroke-width="1.25" stroke-linecap="round" stroke-linejoin="round"/>
<path d="M17.0833 16.666V14.166C17.0833 12.9748 15.9641 11.666 14.5833 11.666C13.2026 11.666 12.0833 12.9748 12.0833 14.166V17.0827C12.0833 17.773 12.643 18.3327 13.3333 18.3327C14.0236 18.3327 14.5833 17.773 14.5833 17.0827V14.166" stroke="#9D9D9D" stroke-width="1.25" stroke-linecap="round" stroke-linejoin="round"/>
</svg>
