<svg width="40" height="40" viewBox="0 0 40 40" fill="none" xmlns="http://www.w3.org/2000/svg">
<path d="M6.66797 19.9987V24.239C6.66797 29.6474 6.66797 32.3515 8.14475 34.1832C8.4431 34.5532 8.78015 34.8902 9.15019 35.1885C10.9818 36.6654 13.686 36.6654 19.0943 36.6654C20.2703 36.6654 20.8581 36.6654 21.3966 36.4754C21.5086 36.4359 21.6183 36.3904 21.7255 36.3392C22.2406 36.0927 22.6563 35.677 23.4878 34.8455L31.382 26.9514C32.3455 25.9879 32.8271 25.5062 33.081 24.8935C33.3346 24.281 33.3346 23.5997 33.3346 22.2372V16.6654C33.3346 10.38 33.3346 7.23728 31.382 5.28465C29.4295 3.33203 26.2866 3.33203 20.0013 3.33203M21.668 35.832V34.9987C21.668 30.2847 21.668 27.9277 23.1325 26.4632C24.597 24.9987 26.954 24.9987 31.668 24.9987H32.5013" stroke="#1B5FC1" stroke-width="2.5" stroke-linecap="round" stroke-linejoin="round"/>
<path d="M16.668 8.33203C15.6849 7.32063 13.0684 3.33203 11.668 3.33203C10.2675 3.33203 7.65104 7.32063 6.66797 8.33203M11.668 4.9987V16.6654" stroke="#1B5FC1" stroke-width="2.5" stroke-linecap="round" stroke-linejoin="round"/>
</svg>
