<svg width="150" height="151" viewBox="0 0 150 151" fill="none" xmlns="http://www.w3.org/2000/svg">
<path fill-rule="evenodd" clip-rule="evenodd" d="M117.166 22.0586L130.845 121.827L132.074 131.837C132.47 135.061 130.177 137.996 126.952 138.392L40.8344 148.966C37.6099 149.362 34.6749 147.069 34.279 143.844L21.0205 35.8626C20.8226 34.2504 21.9691 32.7829 23.5814 32.5849C23.5915 32.5837 23.6017 32.5825 23.6119 32.5813L30.7566 31.7799M36.5335 31.1321L43.2792 30.3754L36.5335 31.1321Z" fill="white"/>
<path d="M118.987 21.8089C118.849 20.803 117.922 20.0995 116.916 20.2374C115.91 20.3753 115.207 21.3024 115.345 22.3083L117.166 22.0586L118.987 21.8089ZM130.845 121.827L132.67 121.603C132.669 121.595 132.667 121.586 132.666 121.578L130.845 121.827ZM132.074 131.837L133.899 131.613L132.074 131.837ZM126.952 138.392L127.176 140.216L126.952 138.392ZM40.8344 148.966L41.0584 150.79L40.8344 148.966ZM34.279 143.844L36.1036 143.62L34.279 143.844ZM23.6119 32.5813L23.8169 34.4081L23.6119 32.5813ZM30.9615 33.6067C31.9704 33.4935 32.6965 32.5839 32.5834 31.575C32.4702 30.5661 31.5606 29.8399 30.5517 29.9531L30.7566 31.7799L30.9615 33.6067ZM36.3286 29.3053C35.3197 29.4185 34.5936 30.3281 34.7067 31.337C34.8199 32.3459 35.7295 33.072 36.7384 32.9588L36.5335 31.1321L36.3286 29.3053ZM43.4841 32.2021C44.493 32.089 45.2191 31.1794 45.106 30.1705C44.9928 29.1616 44.0832 28.4354 43.0743 28.5486L43.2792 30.3754L43.4841 32.2021ZM117.166 22.0586L115.345 22.3083L129.024 122.077L130.845 121.827L132.666 121.578L118.987 21.8089L117.166 22.0586ZM130.845 121.827L129.02 122.051L130.249 132.061L132.074 131.837L133.899 131.613L132.67 121.603L130.845 121.827ZM132.074 131.837L130.249 132.061C130.522 134.277 128.945 136.295 126.728 136.567L126.952 138.392L127.176 140.216C131.409 139.697 134.418 135.845 133.899 131.613L132.074 131.837ZM126.952 138.392L126.728 136.567L40.6104 147.141L40.8344 148.966L41.0584 150.79L127.176 140.216L126.952 138.392ZM40.8344 148.966L40.6104 147.141C38.3935 147.414 36.3758 145.837 36.1036 143.62L34.279 143.844L32.4545 144.068C32.9741 148.3 36.8263 151.31 41.0584 150.79L40.8344 148.966ZM34.279 143.844L36.1036 143.62L22.8451 35.6386L21.0205 35.8626L19.196 36.0866L32.4545 144.068L34.279 143.844ZM21.0205 35.8626L22.8451 35.6386C22.7708 35.034 23.2008 34.4837 23.8054 34.4095L23.5814 32.5849L23.3573 30.7604C20.7374 31.0821 18.8743 33.4667 19.196 36.0866L21.0205 35.8626ZM23.5814 32.5849L23.8054 34.4095C23.8092 34.409 23.813 34.4085 23.8169 34.4081L23.6119 32.5813L23.407 30.7546C23.3904 30.7564 23.3739 30.7584 23.3573 30.7604L23.5814 32.5849ZM23.6119 32.5813L23.8169 34.4081L30.9615 33.6067L30.7566 31.7799L30.5517 29.9531L23.407 30.7546L23.6119 32.5813ZM36.5335 31.1321L36.7384 32.9588L43.4841 32.2021L43.2792 30.3754L43.0743 28.5486L36.3286 29.3053L36.5335 31.1321Z" fill="#9D9D9D"/>
<path fill-rule="evenodd" clip-rule="evenodd" d="M113.441 28.3373L125.822 118.755L126.936 127.825C127.295 130.748 125.245 133.404 122.357 133.759L45.2366 143.228C42.349 143.582 39.7172 141.501 39.3584 138.579L27.3731 40.9661C27.1751 39.3539 28.3216 37.8864 29.9339 37.6884L39.4745 36.517" fill="#EAEAEA"/>
<path d="M53.9297 3.30847H120.925C121.997 3.30856 123.025 3.73438 123.783 4.49207L143.553 24.2499C144.312 25.0084 144.738 26.0373 144.738 27.1102V119.118C144.738 121.351 142.928 123.162 140.694 123.162H53.9297C51.6963 123.162 49.885 121.351 49.8848 119.118V7.35339C49.8848 5.11989 51.6962 3.30847 53.9297 3.30847Z" fill="white" stroke="#9D9D9D" stroke-width="3.67647"/>
<path d="M121.576 5.00391V22.0586C121.576 24.4951 123.551 26.4703 125.988 26.4703H137.655" stroke="#9D9D9D" stroke-width="3.67647" stroke-linecap="round" stroke-linejoin="round"/>
<path d="M64.7059 101.471H102.941M64.7059 26.4706H102.941H64.7059ZM64.7059 44.1176H127.941H64.7059ZM64.7059 63.2353H127.941H64.7059ZM64.7059 82.3529H127.941H64.7059Z" stroke="#BDBDBD" stroke-width="3.67647" stroke-linecap="round" stroke-linejoin="round"/>
</svg>
