<svg width="20" height="20" viewBox="0 0 20 20" fill="none" xmlns="http://www.w3.org/2000/svg">
<path d="M2.50016 10.8335C2.50016 10.6124 2.58796 10.4005 2.74424 10.2442C2.90052 10.0879 3.11248 10.0001 3.33349 10.0001H6.66683C6.88784 10.0001 7.0998 10.0879 7.25608 10.2442C7.41236 10.4005 7.50016 10.6124 7.50016 10.8335V15.8335C7.50016 16.0545 7.41236 16.2664 7.25608 16.4227C7.0998 16.579 6.88784 16.6668 6.66683 16.6668H3.33349C3.11248 16.6668 2.90052 16.579 2.74424 16.4227C2.58796 16.2664 2.50016 16.0545 2.50016 15.8335V10.8335Z" stroke="#9D9D9D" stroke-width="1.25" stroke-linecap="round" stroke-linejoin="round"/>
<path d="M7.50018 7.49935C7.50018 7.27834 7.58798 7.06637 7.74426 6.91009C7.90054 6.75381 8.1125 6.66602 8.33352 6.66602H11.6668C11.8879 6.66602 12.0998 6.75381 12.2561 6.91009C12.4124 7.06637 12.5002 7.27834 12.5002 7.49935V15.8327C12.5002 16.0537 12.4124 16.2657 12.2561 16.4219C12.0998 16.5782 11.8879 16.666 11.6668 16.666H8.33352C8.1125 16.666 7.90054 16.5782 7.74426 16.4219C7.58798 16.2657 7.50018 16.0537 7.50018 15.8327V7.49935Z" stroke="#9D9D9D" stroke-width="1.25" stroke-linecap="round" stroke-linejoin="round"/>
<path d="M12.5002 4.16732C12.5002 3.9463 12.588 3.73434 12.7443 3.57806C12.9005 3.42178 13.1125 3.33398 13.3335 3.33398H16.6668C16.8879 3.33398 17.0998 3.42178 17.2561 3.57806C17.4124 3.73434 17.5002 3.9463 17.5002 4.16732V15.834C17.5002 16.055 17.4124 16.267 17.2561 16.4232C17.0998 16.5795 16.8879 16.6673 16.6668 16.6673H13.3335C13.1125 16.6673 12.9005 16.5795 12.7443 16.4232C12.588 16.267 12.5002 16.055 12.5002 15.834V4.16732Z" stroke="#9D9D9D" stroke-width="1.25" stroke-linecap="round" stroke-linejoin="round"/>
<path d="M3.3335 16.666H15.0002" stroke="#9D9D9D" stroke-width="1.25" stroke-linecap="round" stroke-linejoin="round"/>
</svg>
