<svg width="20" height="20" viewBox="0 0 20 20" fill="none" xmlns="http://www.w3.org/2000/svg">
<path d="M17.0834 13.1892C14.9989 18.1293 8.22016 19.5689 4.33463 15.7194C0.524671 11.9449 1.70421 5.10671 6.71388 2.91602" stroke="#9D9D9D" stroke-width="1.25" stroke-linecap="round"/>
<path d="M14.736 10.4173C16.3091 10.4173 17.0956 10.4173 17.6035 9.71315C17.6225 9.68682 17.6541 9.63957 17.6711 9.61198C18.1274 8.87323 17.8922 8.30565 17.422 7.17047C16.9956 6.14109 16.3707 5.20578 15.5829 4.41793C14.7949 3.63008 13.8597 3.00512 12.8303 2.57874C11.6951 2.10854 11.1275 1.87343 10.3888 2.32963C10.3612 2.34668 10.3139 2.37823 10.2876 2.39721C9.58344 2.90515 9.58344 3.69167 9.58344 5.2647V7.02355C9.58344 8.6234 9.58344 9.42332 10.0804 9.92032C10.5774 10.4173 11.3774 10.4173 12.9772 10.4173H14.736Z" stroke="#9D9D9D" stroke-width="1.25"/>
</svg>
