<svg width="20" height="20" viewBox="0 0 20 20" fill="none" xmlns="http://www.w3.org/2000/svg">
<path d="M5.48113 12.9007C4.30215 13.6027 1.21095 15.0361 3.0937 16.8299C4.01341 17.706 5.03773 18.3327 6.32554 18.3327H13.6741C14.9619 18.3327 15.9862 17.706 16.9059 16.8299C18.7887 15.0361 15.6975 13.6027 14.5185 12.9007C11.7538 11.2545 8.24581 11.2545 5.48113 12.9007Z" stroke="white" stroke-width="1.25" stroke-linecap="round" stroke-linejoin="round"/>
<path d="M13.7498 5.41602C13.7498 7.48708 12.0709 9.16602 9.99982 9.16602C7.92875 9.16602 6.24982 7.48708 6.24982 5.41602C6.24982 3.34495 7.92875 1.66602 9.99982 1.66602C12.0709 1.66602 13.7498 3.34495 13.7498 5.41602Z" stroke="white" stroke-width="1.25"/>
</svg>
