<svg width="20" height="20" viewBox="0 0 20 20" fill="none" xmlns="http://www.w3.org/2000/svg">
<path d="M4.31674 12.7463C3.26876 13.3606 0.52103 14.6148 2.19459 16.1843C3.0121 16.951 3.9226 17.4993 5.06733 17.4993H11.5994C12.7441 17.4993 13.6546 16.951 14.4721 16.1843C16.1457 14.6148 13.3979 13.3606 12.3499 12.7463C9.89244 11.3059 6.77424 11.3059 4.31674 12.7463Z" stroke="#9D9D9D" stroke-width="1.25" stroke-linecap="round" stroke-linejoin="round"/>
<path d="M11.6667 5.83333C11.6667 7.67428 10.1742 9.16667 8.33333 9.16667C6.49238 9.16667 5 7.67428 5 5.83333C5 3.99238 6.49238 2.5 8.33333 2.5C10.1742 2.5 11.6667 3.99238 11.6667 5.83333Z" stroke="#9D9D9D" stroke-width="1.25"/>
<path d="M16.2652 2.86104L16.7052 3.74822C16.7652 3.87172 16.9252 3.99018 17.0602 4.01286L17.8576 4.14644C18.3675 4.23214 18.4875 4.60515 18.12 4.97313L17.5001 5.59818C17.3951 5.70404 17.3376 5.90819 17.3701 6.05437L17.5476 6.82813C17.6876 7.44058 17.3651 7.67749 16.8277 7.35741L16.0802 6.9113C15.9452 6.83064 15.7228 6.83064 15.5853 6.9113L14.8379 7.35741C14.303 7.67749 13.978 7.43806 14.118 6.82813L14.2955 6.05437C14.3279 5.90819 14.2705 5.70404 14.1655 5.59818L13.5456 4.97313C13.1806 4.60515 13.2981 4.23214 13.808 4.14644L14.6054 4.01286C14.7379 3.99018 14.8979 3.87172 14.9579 3.74822L15.3978 2.86104C15.6378 2.37965 16.0277 2.37965 16.2652 2.86104Z" stroke="#9D9D9D" stroke-width="1.25" stroke-linecap="round" stroke-linejoin="round"/>
</svg>
