<svg width="50" height="50" viewBox="0 0 50 50" fill="none" xmlns="http://www.w3.org/2000/svg">
<rect width="50" height="50" rx="25" fill="#E8EFF9"/>
<path d="M35 13H32V12C32 11.7348 31.8946 11.4804 31.7071 11.2929C31.5196 11.1054 31.2652 11 31 11C30.7348 11 30.4804 11.1054 30.2929 11.2929C30.1054 11.4804 30 11.7348 30 12V13H20V12C20 11.7348 19.8946 11.4804 19.7071 11.2929C19.5196 11.1054 19.2652 11 19 11C18.7348 11 18.4804 11.1054 18.2929 11.2929C18.1054 11.4804 18 11.7348 18 12V13H15C14.4696 13 13.9609 13.2107 13.5858 13.5858C13.2107 13.9609 13 14.4696 13 15V35C13 35.5304 13.2107 36.0391 13.5858 36.4142C13.9609 36.7893 14.4696 37 15 37H35C35.5304 37 36.0391 36.7893 36.4142 36.4142C36.7893 36.0391 37 35.5304 37 35V15C37 14.4696 36.7893 13.9609 36.4142 13.5858C36.0391 13.2107 35.5304 13 35 13ZM28 29H22C21.7348 29 21.4804 28.8946 21.2929 28.7071C21.1054 28.5196 21 28.2652 21 28C21 27.7348 21.1054 27.4804 21.2929 27.2929C21.4804 27.1054 21.7348 27 22 27H28C28.2652 27 28.5196 27.1054 28.7071 27.2929C28.8946 27.4804 29 27.7348 29 28C29 28.2652 28.8946 28.5196 28.7071 28.7071C28.5196 28.8946 28.2652 29 28 29ZM35 19H15V15H18V16C18 16.2652 18.1054 16.5196 18.2929 16.7071C18.4804 16.8946 18.7348 17 19 17C19.2652 17 19.5196 16.8946 19.7071 16.7071C19.8946 16.5196 20 16.2652 20 16V15H30V16C30 16.2652 30.1054 16.5196 30.2929 16.7071C30.4804 16.8946 30.7348 17 31 17C31.2652 17 31.5196 16.8946 31.7071 16.7071C31.8946 16.5196 32 16.2652 32 16V15H35V19Z" fill="#1B5FC1"/>
</svg>
