<svg width="10" height="10" viewBox="0 0 10 10" fill="none" xmlns="http://www.w3.org/2000/svg">
<path d="M6.7154 2.37061C7.64212 2.37061 7.90794 2.37061 8.22713 2.61554C8.30931 2.67859 8.38288 2.75215 8.44593 2.83433C8.69085 3.15353 8.69085 3.61688 8.69085 4.5436V6.3215C8.69085 7.43897 8.69085 7.9977 8.34368 8.34487C7.99652 8.69203 7.43778 8.69203 6.32031 8.69203H3.1596C2.04212 8.69203 1.48338 8.69203 1.13622 8.34487C0.789062 7.9977 0.789062 7.43897 0.789062 6.3215V4.5436C0.789062 3.61688 0.789063 3.15353 1.03399 2.83433C1.09705 2.75215 1.17061 2.67859 1.25279 2.61554C1.57199 2.37061 1.8378 2.37061 2.76451 2.37061" stroke="white" stroke-width="0.592634" stroke-linecap="round"/>
<path d="M6.71652 2.76597L6.36655 1.89102C6.21554 1.51352 6.08414 1.0853 5.69584 0.893073C5.48874 0.790527 5.23952 0.790527 4.74107 0.790527C4.24263 0.790527 3.9934 0.790527 3.78628 0.893073C3.398 1.0853 3.2666 1.51352 3.11561 1.89102L2.76562 2.76597" stroke="white" stroke-width="0.592634" stroke-linecap="round" stroke-linejoin="round"/>
<path d="M6.125 5.53125C6.125 6.29496 5.5059 6.91406 4.74219 6.91406C3.97848 6.91406 3.35938 6.29496 3.35938 5.53125C3.35938 4.76754 3.97848 4.14844 4.74219 4.14844C5.5059 4.14844 6.125 4.76754 6.125 5.53125Z" stroke="white" stroke-width="0.592634"/>
<path d="M4.74219 2.37061H4.74669" stroke="white" stroke-width="0.790179" stroke-linecap="round" stroke-linejoin="round"/>
</svg>
