<svg width="44" height="44" viewBox="0 0 44 44" fill="none" xmlns="http://www.w3.org/2000/svg">
<path d="M24.9412 0.916656H8.2487C7.27624 0.916656 6.34361 1.30296 5.65597 1.9906C4.96834 2.67823 4.58203 3.61086 4.58203 4.58332V39.4167C4.58203 40.3891 4.96834 41.3217 5.65597 42.0094C6.34361 42.697 7.27624 43.0833 8.2487 43.0833H35.7487C36.7212 43.0833 37.6538 42.697 38.3414 42.0094C39.0291 41.3217 39.4154 40.3891 39.4154 39.4167V13.75L24.9412 0.916656Z" fill="#B7E3F6"/>
<path d="M39.4167 13.75H26.5833C26.0971 13.75 25.6308 13.5568 25.287 13.213C24.9432 12.8692 24.75 12.4029 24.75 11.9167V0.916656L39.4167 13.75Z" fill="#38B1E7"/>
<path d="M30.2513 27.5H13.7513C13.2651 27.5 12.7988 27.3069 12.4549 26.963C12.1111 26.6192 11.918 26.1529 11.918 25.6667C11.918 25.1804 12.1111 24.7141 12.4549 24.3703C12.7988 24.0265 13.2651 23.8333 13.7513 23.8333H30.2513C30.7375 23.8333 31.2038 24.0265 31.5477 24.3703C31.8915 24.7141 32.0846 25.1804 32.0846 25.6667C32.0846 26.1529 31.8915 26.6192 31.5477 26.963C31.2038 27.3069 30.7375 27.5 30.2513 27.5Z" fill="#38B1E7"/>
<path d="M30.2513 36.6667H13.7513C13.2651 36.6667 12.7988 36.4735 12.4549 36.1297C12.1111 35.7859 11.918 35.3196 11.918 34.8333C11.918 34.3471 12.1111 33.8808 12.4549 33.537C12.7988 33.1932 13.2651 33 13.7513 33H30.2513C30.7375 33 31.2038 33.1932 31.5477 33.537C31.8915 33.8808 32.0846 34.3471 32.0846 34.8333C32.0846 35.3196 31.8915 35.7859 31.5477 36.1297C31.2038 36.4735 30.7375 36.6667 30.2513 36.6667Z" fill="#38B1E7"/>
</svg>
