<svg width="20" height="20" viewBox="0 0 20 20" fill="none" xmlns="http://www.w3.org/2000/svg">
<path d="M16.6654 10.8327V8.8801C16.6654 8.19881 16.6654 7.85818 16.5385 7.5519C16.4116 7.24562 16.1708 7.00476 15.689 6.52304L11.7419 2.57592C11.3262 2.16018 11.1184 1.95231 10.8608 1.82914C10.8072 1.80352 10.7524 1.78078 10.6964 1.76102C10.4271 1.66602 10.1332 1.66602 9.5452 1.66602C6.84105 1.66602 5.48896 1.66602 4.57314 2.40441C4.38812 2.55358 4.2196 2.72211 4.07042 2.90712C3.33203 3.82294 3.33203 5.17503 3.33203 7.87922V11.666C3.33203 14.8087 3.33203 16.3801 4.30834 17.3563C5.19426 18.2423 6.57011 18.3243 9.16536 18.3319M10.832 2.08268V2.49935C10.832 4.85637 10.832 6.03488 11.5643 6.76712C12.2965 7.49935 13.475 7.49935 15.832 7.49935H16.2487" stroke="#292929" stroke-width="1.25" stroke-linecap="round" stroke-linejoin="round"/>
<path d="M16.6667 18.3337L14.8774 16.5444M14.8774 16.5444C14.9729 16.449 15.0616 16.3468 15.1428 16.2387C15.5017 15.7612 15.7142 15.1675 15.7142 14.5242C15.7142 12.9462 14.4351 11.667 12.8572 11.667C11.2792 11.667 10 12.9462 10 14.5242C10 16.1021 11.2792 17.3812 12.8572 17.3812C13.6461 17.3812 14.3604 17.0615 14.8774 16.5444Z" stroke="#292929" stroke-width="1.25" stroke-linecap="round" stroke-linejoin="round"/>
</svg>
