<svg width="17" height="17" viewBox="0 0 17 17" fill="none" xmlns="http://www.w3.org/2000/svg">
<path d="M14.6983 8.39999C14.6983 8.53922 14.643 8.67276 14.5445 8.77122C14.446 8.86967 14.3125 8.92498 14.1733 8.92498H6.82327C6.68403 8.92498 6.5505 8.86967 6.45204 8.77122C6.35358 8.67276 6.29827 8.53922 6.29827 8.39999C6.29827 8.26075 6.35358 8.12721 6.45204 8.02875C6.5505 7.9303 6.68403 7.87499 6.82327 7.87499H14.1733C14.3125 7.87499 14.446 7.9303 14.5445 8.02875C14.643 8.12721 14.6983 8.26075 14.6983 8.39999ZM6.82327 4.72499H14.1733C14.3125 4.72499 14.446 4.66967 14.5445 4.57122C14.643 4.47276 14.6983 4.33922 14.6983 4.19999C14.6983 4.06075 14.643 3.92721 14.5445 3.82875C14.446 3.7303 14.3125 3.67499 14.1733 3.67499H6.82327C6.68403 3.67499 6.5505 3.7303 6.45204 3.82875C6.35358 3.92721 6.29827 4.06075 6.29827 4.19999C6.29827 4.33922 6.35358 4.47276 6.45204 4.57122C6.5505 4.66967 6.68403 4.72499 6.82327 4.72499ZM14.1733 12.075H6.82327C6.68403 12.075 6.5505 12.1303 6.45204 12.2288C6.35358 12.3272 6.29827 12.4607 6.29827 12.6C6.29827 12.7392 6.35358 12.8728 6.45204 12.9712C6.5505 13.0697 6.68403 13.125 6.82327 13.125H14.1733C14.3125 13.125 14.446 13.0697 14.5445 12.9712C14.643 12.8728 14.6983 12.7392 14.6983 12.6C14.6983 12.4607 14.643 12.3272 14.5445 12.2288C14.446 12.1303 14.3125 12.075 14.1733 12.075ZM2.85821 3.61986L3.14827 3.47417V6.82499C3.14827 6.96422 3.20358 7.09776 3.30204 7.19622C3.4005 7.29467 3.53403 7.34999 3.67327 7.34999C3.81251 7.34999 3.94605 7.29467 4.0445 7.19622C4.14296 7.09776 4.19827 6.96422 4.19827 6.82499V2.62499C4.19834 2.53545 4.1755 2.44739 4.13193 2.36916C4.08837 2.29094 4.02552 2.22516 3.94937 2.17807C3.87321 2.13099 3.78628 2.10416 3.69684 2.10014C3.60739 2.09612 3.5184 2.11504 3.43833 2.15511L2.38833 2.68011C2.26372 2.74242 2.16895 2.85168 2.12489 2.98386C2.10308 3.04931 2.09437 3.11841 2.09926 3.18723C2.10415 3.25604 2.12254 3.32322 2.1534 3.38492C2.18425 3.44663 2.22695 3.50165 2.27907 3.54685C2.33119 3.59205 2.3917 3.62655 2.45715 3.64836C2.58932 3.69242 2.73359 3.68217 2.85821 3.61986ZM5.23318 10.2847C5.20415 10.0768 5.13337 9.87689 5.02511 9.69702C4.91684 9.51714 4.77332 9.36101 4.60318 9.23802C4.26239 8.99056 3.83911 8.88448 3.4219 8.94196C3.00469 8.99945 2.62587 9.21605 2.36471 9.54645C2.26489 9.67462 2.18583 9.81768 2.13043 9.97039C2.1015 10.0361 2.08636 10.1071 2.08595 10.1789C2.08554 10.2507 2.09986 10.3218 2.12804 10.3879C2.15622 10.454 2.19766 10.5135 2.24978 10.5629C2.3019 10.6123 2.3636 10.6505 2.43107 10.6751C2.49854 10.6997 2.57034 10.7102 2.64203 10.706C2.71372 10.7017 2.78377 10.6828 2.84786 10.6504C2.91195 10.618 2.9687 10.5728 3.01462 10.5176C3.06053 10.4623 3.09463 10.3983 3.1148 10.3294C3.13318 10.279 3.15931 10.2319 3.19224 10.1896C3.28485 10.0742 3.41839 9.99894 3.56507 9.97951C3.71175 9.96007 3.86027 9.99794 3.97974 10.0852C4.03721 10.1259 4.08581 10.1778 4.12259 10.2378C4.15936 10.2978 4.18355 10.3647 4.19368 10.4344C4.20294 10.5013 4.19859 10.5694 4.18088 10.6345C4.16318 10.6997 4.13248 10.7606 4.09065 10.8137C4.08873 10.816 4.08698 10.8184 4.0854 10.8209L2.20262 13.3356C2.14427 13.4137 2.1088 13.5064 2.10017 13.6035C2.09154 13.7006 2.11009 13.7981 2.15375 13.8852C2.19741 13.9723 2.26446 14.0456 2.34738 14.0967C2.4303 14.1479 2.52583 14.175 2.62327 14.175H4.72327C4.86251 14.175 4.99605 14.1197 5.0945 14.0212C5.19296 13.9228 5.24827 13.7892 5.24827 13.65C5.24827 13.5107 5.19296 13.3772 5.0945 13.2788C4.99605 13.1803 4.86251 13.125 4.72327 13.125H3.67327L4.9254 11.4496C5.05234 11.2861 5.14503 11.0986 5.19791 10.8985C5.25079 10.6984 5.26279 10.4896 5.23318 10.2847Z" fill="#1B5FC1"/>
</svg>
