<svg width="8" height="8" viewBox="0 0 8 8" fill="none" xmlns="http://www.w3.org/2000/svg">
<g clip-path="url(#clip0_723_32336)">
<path d="M6.50127 4.5C6.5019 4.60193 6.47093 4.70156 6.41262 4.78516C6.35431 4.86877 6.27152 4.93225 6.17565 4.96688L4.56377 5.5625L3.97002 7.17562C3.93486 7.27115 3.87124 7.35359 3.78776 7.41182C3.70427 7.47005 3.60493 7.50127 3.50315 7.50127C3.40136 7.50127 3.30202 7.47005 3.21853 7.41182C3.13505 7.35359 3.07143 7.27115 3.03627 7.17562L2.43877 5.5625L0.825645 4.96875C0.730123 4.93359 0.647685 4.86997 0.589453 4.78649C0.531222 4.703 0.5 4.60366 0.5 4.50187C0.5 4.40009 0.531222 4.30075 0.589453 4.21726C0.647685 4.13378 0.730123 4.07016 0.825645 4.035L2.43877 3.4375L3.03252 1.82438C3.06768 1.72885 3.1313 1.64641 3.21478 1.58818C3.29827 1.52995 3.39761 1.49873 3.4994 1.49873C3.60118 1.49873 3.70052 1.52995 3.78401 1.58818C3.86749 1.64641 3.93111 1.72885 3.96627 1.82438L4.56377 3.4375L6.1769 4.03125C6.27284 4.06619 6.35557 4.13004 6.41368 4.21401C6.47178 4.29797 6.50239 4.3979 6.50127 4.5ZM4.75127 1.5H5.25127V2C5.25127 2.0663 5.27761 2.12989 5.32449 2.17678C5.37138 2.22366 5.43497 2.25 5.50127 2.25C5.56757 2.25 5.63116 2.22366 5.67805 2.17678C5.72493 2.12989 5.75127 2.0663 5.75127 2V1.5H6.25127C6.31757 1.5 6.38116 1.47366 6.42805 1.42678C6.47493 1.37989 6.50127 1.3163 6.50127 1.25C6.50127 1.1837 6.47493 1.12011 6.42805 1.07322C6.38116 1.02634 6.31757 1 6.25127 1H5.75127V0.5C5.75127 0.433696 5.72493 0.370107 5.67805 0.323223C5.63116 0.276339 5.56757 0.25 5.50127 0.25C5.43497 0.25 5.37138 0.276339 5.32449 0.323223C5.27761 0.370107 5.25127 0.433696 5.25127 0.5V1H4.75127C4.68497 1 4.62138 1.02634 4.57449 1.07322C4.52761 1.12011 4.50127 1.1837 4.50127 1.25C4.50127 1.3163 4.52761 1.37989 4.57449 1.42678C4.62138 1.47366 4.68497 1.5 4.75127 1.5ZM7.50127 2.5H7.25127V2.25C7.25127 2.1837 7.22493 2.12011 7.17805 2.07322C7.13116 2.02634 7.06757 2 7.00127 2C6.93497 2 6.87138 2.02634 6.82449 2.07322C6.77761 2.12011 6.75127 2.1837 6.75127 2.25V2.5H6.50127C6.43497 2.5 6.37138 2.52634 6.32449 2.57322C6.27761 2.62011 6.25127 2.6837 6.25127 2.75C6.25127 2.8163 6.27761 2.87989 6.32449 2.92678C6.37138 2.97366 6.43497 3 6.50127 3H6.75127V3.25C6.75127 3.3163 6.77761 3.37989 6.82449 3.42678C6.87138 3.47366 6.93497 3.5 7.00127 3.5C7.06757 3.5 7.13116 3.47366 7.17805 3.42678C7.22493 3.37989 7.25127 3.3163 7.25127 3.25V3H7.50127C7.56757 3 7.63116 2.97366 7.67805 2.92678C7.72493 2.87989 7.75127 2.8163 7.75127 2.75C7.75127 2.6837 7.72493 2.62011 7.67805 2.57322C7.63116 2.52634 7.56757 2.5 7.50127 2.5Z" fill="#EB8A00"/>
</g>
<defs>
<clipPath id="clip0_723_32336">
<rect width="8" height="8" fill="white"/>
</clipPath>
</defs>
</svg>
