<svg width="16" height="16" viewBox="0 0 16 16" fill="none" xmlns="http://www.w3.org/2000/svg">
<path d="M14.9483 6.07866C14.8858 5.88649 14.7678 5.71712 14.6092 5.59188C14.4506 5.46665 14.2585 5.39116 14.0571 5.37491L10.3696 5.07741L8.9458 1.63429C8.86881 1.44667 8.73776 1.28619 8.56932 1.17325C8.40088 1.06031 8.20267 1 7.99987 1C7.79707 1 7.59885 1.06031 7.43041 1.17325C7.26197 1.28619 7.13093 1.44667 7.05393 1.63429L5.63143 5.07679L1.94205 5.37491C1.74029 5.39198 1.54805 5.4682 1.38941 5.59404C1.23078 5.71988 1.11281 5.88973 1.05028 6.08232C0.987751 6.27491 0.983448 6.48167 1.03791 6.67669C1.09237 6.87172 1.20317 7.04633 1.35643 7.17866L4.16893 9.60554L3.31205 13.2343C3.26413 13.4314 3.27587 13.6384 3.34577 13.8288C3.41567 14.0193 3.54058 14.1847 3.70465 14.304C3.86873 14.4234 4.06456 14.4913 4.26729 14.4991C4.47002 14.5069 4.67051 14.4544 4.8433 14.348L7.99955 12.4055L11.1577 14.348C11.3305 14.4531 11.5306 14.5047 11.7327 14.4962C11.9348 14.4878 12.1299 14.4198 12.2934 14.3007C12.4569 14.1816 12.5816 14.0168 12.6516 13.8271C12.7217 13.6373 12.734 13.431 12.6871 13.2343L11.8271 9.60491L14.6396 7.17804C14.7941 7.04593 14.9059 6.87093 14.9608 6.67522C15.0158 6.47951 15.0114 6.27189 14.9483 6.07866ZM13.9896 6.42054L10.9458 9.04554C10.8764 9.10537 10.8248 9.18312 10.7965 9.27031C10.7683 9.35749 10.7646 9.45076 10.7858 9.53991L11.7158 13.4649C11.7182 13.4703 11.7184 13.4764 11.7165 13.482C11.7145 13.4876 11.7105 13.4922 11.7052 13.4949C11.6939 13.5037 11.6908 13.5018 11.6814 13.4949L8.26143 11.3918C8.18266 11.3434 8.09201 11.3177 7.99955 11.3177C7.90709 11.3177 7.81644 11.3434 7.73768 11.3918L4.31768 13.4962C4.3083 13.5018 4.3058 13.5037 4.29393 13.4962C4.28865 13.4935 4.28461 13.4889 4.28263 13.4833C4.28066 13.4777 4.2809 13.4716 4.2833 13.4662L5.2133 9.54116C5.2345 9.45201 5.23079 9.35874 5.20257 9.27156C5.17435 9.18437 5.12272 9.10662 5.0533 9.04679L2.00955 6.42179C2.00205 6.41554 1.99518 6.40991 2.00143 6.39054C2.00768 6.37116 2.01268 6.37366 2.02205 6.37241L6.01705 6.04991C6.10868 6.04205 6.19637 6.00907 6.27047 5.9546C6.34457 5.90013 6.40221 5.82628 6.43705 5.74116L7.9758 2.01554L7.97625 2.01458C7.98093 2.00461 7.98314 1.99991 7.99768 1.99991C8.01222 1.99991 8.01443 2.00461 8.01911 2.01458L8.01955 2.01554L9.56205 5.74116C9.59722 5.82631 9.65523 5.90008 9.72967 5.95434C9.80412 6.00861 9.89211 6.04125 9.98393 6.04866L13.9789 6.37116C13.9883 6.37116 13.9939 6.37116 13.9996 6.38929C14.0052 6.40741 13.9996 6.41429 13.9896 6.42054Z" fill="#FDA52A"/>
<path d="M13.9896 6.42054L10.9458 9.04554C10.8764 9.10537 10.8248 9.18312 10.7965 9.27031C10.7683 9.35749 10.7646 9.45076 10.7858 9.53991L11.7158 13.4649C11.7182 13.4703 11.7184 13.4764 11.7165 13.482C11.7145 13.4876 11.7105 13.4922 11.7052 13.4949C11.6939 13.5037 11.6908 13.5018 11.6814 13.4949L8.26143 11.3918C8.18266 11.3434 8.09201 11.3177 7.99955 11.3177C7.90709 11.3177 7.81644 11.3434 7.73768 11.3918L4.31768 13.4962C4.3083 13.5018 4.3058 13.5037 4.29393 13.4962C4.28865 13.4935 4.28461 13.4889 4.28263 13.4833C4.28066 13.4777 4.2809 13.4716 4.2833 13.4662L5.2133 9.54116C5.2345 9.45201 5.23079 9.35874 5.20257 9.27156C5.17435 9.18437 5.12272 9.10662 5.0533 9.04679L2.00955 6.42179C2.00205 6.41554 1.99518 6.40991 2.00143 6.39054C2.00768 6.37116 2.01268 6.37366 2.02205 6.37241L6.01705 6.04991C6.10868 6.04205 6.19637 6.00907 6.27047 5.9546C6.34457 5.90013 6.40221 5.82628 6.43705 5.74116L7.9758 2.01554L7.97625 2.01458C7.98093 2.00461 7.98314 1.99991 7.99768 1.99991C8.01222 1.99991 8.01443 2.00461 8.01911 2.01458L8.01955 2.01554L9.56205 5.74116C9.59722 5.82631 9.65523 5.90008 9.72967 5.95434C9.80412 6.00861 9.89211 6.04125 9.98393 6.04866L13.9789 6.37116C13.9883 6.37116 13.9939 6.37116 13.9996 6.38929C14.0052 6.40741 13.9996 6.41429 13.9896 6.42054Z" fill="#FDA52A"/>
</svg>
