<svg width="20" height="20" viewBox="0 0 20 20" fill="none" xmlns="http://www.w3.org/2000/svg">
<path d="M3.125 14.7249C3.125 15.2222 3.53124 15.6249 4.03176 15.6249H4.04479C3.53661 15.6249 3.125 15.2222 3.125 14.7249Z" fill="#FBBC05"/>
<path d="M10.9168 7.75V10.0997L14.0847 7.5445V5.27499C14.0847 4.77775 13.6784 4.375 13.1779 4.375H6.31472L6.30859 7.75H10.9168Z" fill="#FBBC05"/>
<path d="M10.9181 12.4503H6.30225L6.29688 15.625H13.1792C13.6805 15.625 14.086 15.2223 14.086 14.725V12.676L10.9181 10.1005V12.4503Z" fill="#34A853"/>
<path d="M6.31513 4.375L3.125 7.75H6.30975L6.31513 4.375Z" fill="#EA4335"/>
<path d="M3.125 12.4504V14.7251C3.125 15.2224 3.53661 15.6251 4.04479 15.6251H6.296L6.30131 12.4504H3.125Z" fill="#1967D2"/>
<path d="M6.30975 7.74982H3.125V12.4501H6.30131L6.30975 7.74982Z" fill="#4285F4"/>
<path d="M16.8706 13.9247V6.19981C16.692 5.17457 15.5676 6.34981 15.5676 6.34981L14.0859 7.54456V12.6752L16.2068 14.3995C16.9726 14.5 16.8706 13.9247 16.8706 13.9247Z" fill="#34A853"/>
<path d="M10.918 10.0996L14.0867 12.6759V7.54517L10.918 10.0996Z" fill="#188038"/>
</svg>
