<svg width="24" height="25" viewBox="0 0 24 25" fill="none" xmlns="http://www.w3.org/2000/svg">
<path d="M2.52992 15.7696C2.31727 17.1636 3.268 18.1312 4.43205 18.6134C8.89481 20.4622 15.1052 20.4622 19.5679 18.6134C20.732 18.1312 21.6827 17.1636 21.4701 15.7696C21.3394 14.9129 20.6932 14.1995 20.2144 13.5029C19.5873 12.5793 19.525 11.5718 19.5249 10.5C19.5249 6.35786 16.1559 3 12 3C7.84413 3 4.47513 6.35786 4.47513 10.5C4.47503 11.5718 4.41272 12.5793 3.78561 13.5029C3.30684 14.1995 2.66061 14.9129 2.52992 15.7696Z" stroke="#292929" stroke-width="1.5" stroke-linecap="round" stroke-linejoin="round"/>
<path d="M8 20C8.45849 21.7252 10.0755 23 12 23C13.9245 23 15.5415 21.7252 16 20" stroke="#292929" stroke-width="1.5" stroke-linecap="round" stroke-linejoin="round"/>
<circle cx="16.0449" cy="5" r="4" fill="#FF3B30" stroke="white" stroke-width="2"/>
</svg>
