<svg width="40" height="40" viewBox="0 0 40 40" fill="none" xmlns="http://www.w3.org/2000/svg">
<path d="M21.6654 5.00385C20.8819 5 20.0499 5 19.1654 5C11.7015 5 7.96951 5 5.65076 7.31873C3.33203 9.63748 3.33203 13.3694 3.33203 20.8333C3.33203 28.2972 3.33203 32.0292 5.65076 34.348C7.96951 36.6667 11.7015 36.6667 19.1654 36.6667C26.6292 36.6667 30.3612 36.6667 32.68 34.348C34.9107 32.1172 34.9954 28.5783 34.9985 21.6667" stroke="#1B5FC1" stroke-width="2.5" stroke-linecap="round"/>
<path d="M3.33203 23.5586C4.36373 23.4088 5.40676 23.3348 6.45155 23.3375C10.8714 23.244 15.1831 24.6211 18.6172 27.2233C21.802 29.6365 24.0399 32.9578 24.9987 36.6663" stroke="#1B5FC1" stroke-width="2.5" stroke-linejoin="round"/>
<path d="M35 28.1606C33.041 27.1684 31.0147 26.6649 28.977 26.6671C25.8908 26.6549 22.8358 27.7891 20 30.0003" stroke="#1B5FC1" stroke-width="2.5" stroke-linejoin="round"/>
<path d="M28.332 7.49967C29.1512 6.65684 31.3317 3.33301 32.4987 3.33301M32.4987 3.33301C33.6657 3.33301 35.8462 6.65684 36.6654 7.49967M32.4987 3.33301V16.6663" stroke="#1B5FC1" stroke-width="2.5" stroke-linecap="round" stroke-linejoin="round"/>
</svg>
