<svg width="18" height="18" viewBox="0 0 18 18" fill="none" xmlns="http://www.w3.org/2000/svg">
<path d="M9 4.50006C8.44374 4.50006 7.89997 4.66501 7.43746 4.97405C6.97495 5.28309 6.61446 5.72235 6.40159 6.23626C6.18872 6.75018 6.13302 7.31568 6.24154 7.86125C6.35006 8.40682 6.61793 8.90796 7.01126 9.3013C7.4046 9.69463 7.90574 9.9625 8.45131 10.071C8.99688 10.1795 9.56238 10.1238 10.0763 9.91097C10.5902 9.6981 11.0295 9.33762 11.3385 8.8751C11.6475 8.41259 11.8125 7.86882 11.8125 7.31256C11.8125 6.56664 11.5162 5.85127 10.9887 5.32382C10.4613 4.79638 9.74592 4.50006 9 4.50006ZM9 9.00006C8.66624 9.00006 8.33998 8.90109 8.06248 8.71567C7.78497 8.53024 7.56868 8.26669 7.44095 7.95834C7.31323 7.64999 7.27981 7.31069 7.34492 6.98335C7.41004 6.656 7.57076 6.35532 7.80676 6.11932C8.04276 5.88332 8.34344 5.7226 8.67078 5.65749C8.99813 5.59237 9.33743 5.62579 9.64578 5.75351C9.95413 5.88124 10.2177 6.09753 10.4031 6.37504C10.5885 6.65254 10.6875 6.97881 10.6875 7.31256C10.6875 7.76011 10.5097 8.18934 10.1932 8.5058C9.87678 8.82227 9.44755 9.00006 9 9.00006ZM9 1.12506C7.35954 1.12692 5.78681 1.77942 4.62683 2.93939C3.46685 4.09937 2.81436 5.67211 2.8125 7.31256C2.8125 9.52037 3.83273 11.8604 5.76562 14.0801C6.63414 15.0832 7.61165 15.9864 8.68008 16.7731C8.77466 16.8394 8.88734 16.8749 9.00281 16.8749C9.11829 16.8749 9.23097 16.8394 9.32555 16.7731C10.392 15.9861 11.3676 15.0829 12.2344 14.0801C14.1645 11.8604 15.1875 9.52037 15.1875 7.31256C15.1856 5.67211 14.5331 4.09937 13.3732 2.93939C12.2132 1.77942 10.6405 1.12692 9 1.12506ZM9 15.6094C7.83773 14.6954 3.9375 11.338 3.9375 7.31256C3.9375 5.9699 4.47087 4.68224 5.42027 3.73283C6.36967 2.78343 7.65734 2.25006 9 2.25006C10.3427 2.25006 11.6303 2.78343 12.5797 3.73283C13.5291 4.68224 14.0625 5.9699 14.0625 7.31256C14.0625 11.3365 10.1623 14.6954 9 15.6094Z" fill="#707070"/>
</svg>
