<svg width="20" height="20" viewBox="0 0 20 20" fill="none" xmlns="http://www.w3.org/2000/svg">
<path d="M18.75 1.25H6.25C5.55964 1.25 5 1.80964 5 2.5V17.5C5 18.1904 5.55964 18.75 6.25 18.75H18.75C19.4404 18.75 20 18.1904 20 17.5V2.5C20 1.80964 19.4404 1.25 18.75 1.25Z" fill="url(#paint0_linear_772_3452)"/>
<path d="M5 14.375H20V17.5C20 18.1904 19.4404 18.75 18.75 18.75H6.25C5.55964 18.75 5 18.1904 5 17.5V14.375Z" fill="url(#paint1_linear_772_3452)"/>
<path d="M20 10H5V14.375H20V10Z" fill="url(#paint2_linear_772_3452)"/>
<path d="M20 5.625H5V10H20V5.625Z" fill="url(#paint3_linear_772_3452)"/>
<path d="M5 7.5C5 6.46444 5.83947 5.625 6.875 5.625H10.625C11.6606 5.625 12.5 6.46444 12.5 7.5V15C12.5 16.0356 11.6606 16.875 10.625 16.875H5V7.5Z" fill="black" fill-opacity="0.3"/>
<path d="M10 4.375H1.25C0.559644 4.375 0 4.93464 0 5.625V14.375C0 15.0654 0.559644 15.625 1.25 15.625H10C10.6904 15.625 11.25 15.0654 11.25 14.375V5.625C11.25 4.93464 10.6904 4.375 10 4.375Z" fill="url(#paint4_linear_772_3452)"/>
<path d="M9.375 6.88388H8.15769L7.20181 10.9619L6.15604 6.875H5.12663L4.07271 10.9619L3.125 6.88388H1.875L3.50082 13.125H4.57925L5.625 9.17994L6.67075 13.125H7.74919L9.375 6.88388Z" fill="white"/>
<defs>
<linearGradient id="paint0_linear_772_3452" x1="5" y1="4.16667" x2="20" y2="4.16667" gradientUnits="userSpaceOnUse">
<stop stop-color="#2B78B1"/>
<stop offset="1" stop-color="#338ACD"/>
</linearGradient>
<linearGradient id="paint1_linear_772_3452" x1="5" y1="17.1094" x2="20" y2="17.1094" gradientUnits="userSpaceOnUse">
<stop stop-color="#1B366F"/>
<stop offset="1" stop-color="#2657B0"/>
</linearGradient>
<linearGradient id="paint2_linear_772_3452" x1="11.5625" y1="12.5" x2="20" y2="12.5" gradientUnits="userSpaceOnUse">
<stop stop-color="#20478B"/>
<stop offset="1" stop-color="#2D6FD1"/>
</linearGradient>
<linearGradient id="paint3_linear_772_3452" x1="11.5625" y1="8.125" x2="20" y2="8.125" gradientUnits="userSpaceOnUse">
<stop stop-color="#215295"/>
<stop offset="1" stop-color="#2E84D3"/>
</linearGradient>
<linearGradient id="paint4_linear_772_3452" x1="2.06961e-08" y1="10.625" x2="11.875" y2="10.625" gradientUnits="userSpaceOnUse">
<stop stop-color="#223E74"/>
<stop offset="1" stop-color="#215091"/>
</linearGradient>
</defs>
</svg>
