<svg width="40" height="40" viewBox="0 0 40 40" fill="none" xmlns="http://www.w3.org/2000/svg">
<path d="M37.148 9.20492V39.9998H3.73828V0H27.9431L32.2305 4.28742L37.148 9.20492Z" fill="#B12A27"/>
<path d="M18.8826 2.67969H2.85938V9.84906H18.8826V2.67969Z" fill="#F2F2F2"/>
<path d="M8.60789 5.02977C8.53719 4.85898 8.44297 4.70586 8.31344 4.57633C8.18391 4.4468 8.02484 4.34078 7.84227 4.27008C7.65383 4.19352 7.4418 4.1582 7.20625 4.1582H5.44531V8.70469H6.33461V6.99086H7.20625C7.4418 6.99086 7.65383 6.95555 7.84227 6.87898C8.02484 6.80828 8.18383 6.70234 8.31344 6.57273C8.44305 6.4432 8.53727 6.29594 8.60789 6.1193C8.67266 5.94852 8.70805 5.76594 8.70805 5.5775C8.70797 5.38312 8.67266 5.20055 8.60789 5.02977ZM7.64789 6.025C7.53008 6.13687 7.36523 6.19578 7.165 6.19578H6.33461V4.94727H7.165C7.36523 4.94727 7.53016 5.00617 7.64789 5.12391C7.75977 5.23578 7.81867 5.38891 7.81867 5.57734C7.81875 5.76 7.75984 5.91312 7.64789 6.025Z" fill="#B12A27"/>
<path d="M12.8624 5.91906C12.8566 5.76008 12.8506 5.61875 12.833 5.48914C12.8153 5.35953 12.7859 5.2418 12.7446 5.12992C12.7034 5.02391 12.6504 4.91789 12.5797 4.82367C12.4207 4.59398 12.2263 4.4232 12.0084 4.31719C11.7846 4.21117 11.5196 4.1582 11.2075 4.1582H9.57031V8.70469H11.2075C11.5196 8.70469 11.7846 8.65172 12.0084 8.5457C12.2263 8.43969 12.4207 8.26891 12.5797 8.03922C12.6504 7.945 12.7034 7.83898 12.7446 7.73297C12.7859 7.62109 12.8153 7.50328 12.833 7.37375C12.8506 7.24422 12.8565 7.10281 12.8624 6.94383C12.8683 6.7907 12.8683 6.61992 12.8683 6.43148C12.8683 6.24305 12.8683 6.07219 12.8624 5.91906ZM11.9731 6.89086C11.9731 7.02633 11.9613 7.13234 11.9495 7.22656C11.9377 7.31492 11.9201 7.39734 11.8966 7.45625C11.873 7.52102 11.8377 7.57992 11.7965 7.63289C11.6492 7.82133 11.4255 7.90969 11.131 7.90969H10.4538V4.94734H11.131C11.4255 4.94734 11.6493 5.04156 11.7965 5.23C11.8377 5.28297 11.873 5.33602 11.8966 5.40078C11.9201 5.46555 11.9378 5.54211 11.9495 5.63633C11.9613 5.72469 11.9731 5.83656 11.9731 5.96609C11.979 6.0957 11.979 6.25469 11.979 6.43133C11.9791 6.60812 11.9791 6.76125 11.9731 6.89086Z" fill="#B12A27"/>
<path d="M16.6578 4.94734V4.1582H13.6602V8.70469H14.5495V6.86141H16.3457V6.06633H14.5495V4.94734H16.6578Z" fill="#B12A27"/>
<path d="M8.60789 5.02977C8.53719 4.85898 8.44297 4.70586 8.31344 4.57633C8.18391 4.4468 8.02484 4.34078 7.84227 4.27008C7.65383 4.19352 7.4418 4.1582 7.20625 4.1582H5.44531V8.70469H6.33461V6.99086H7.20625C7.4418 6.99086 7.65383 6.95555 7.84227 6.87898C8.02484 6.80828 8.18383 6.70234 8.31344 6.57273C8.44305 6.4432 8.53727 6.29594 8.60789 6.1193C8.67266 5.94852 8.70805 5.76594 8.70805 5.5775C8.70797 5.38312 8.67266 5.20055 8.60789 5.02977ZM7.64789 6.025C7.53008 6.13687 7.36523 6.19578 7.165 6.19578H6.33461V4.94727H7.165C7.36523 4.94727 7.53016 5.00617 7.64789 5.12391C7.75977 5.23578 7.81867 5.38891 7.81867 5.57734C7.81875 5.76 7.75984 5.91312 7.64789 6.025Z" fill="#B12A27"/>
<path opacity="0.08" d="M37.148 9.20461V39.9995H3.73828V32.7793L19.3566 17.161L20.2812 16.2364L20.7935 15.724L21.6475 14.8701L22.6605 13.8571L32.2305 4.28711L37.148 9.20461Z" fill="#040000"/>
<path d="M37.1434 9.20594H27.9375V0L37.1434 9.20594Z" fill="#771B1B"/>
<path d="M32.375 28.9573C32.1806 28.6158 31.9156 28.2919 31.5858 27.9974C31.315 27.7501 30.9969 27.5204 30.6376 27.3084C29.1889 26.4545 27.1217 26.0422 24.3125 26.0422H24.0299C23.8767 25.9009 23.7178 25.7595 23.5528 25.6123C22.4869 24.6523 21.6389 23.6099 20.9792 22.4498C22.2749 19.5934 22.8932 17.0493 22.8167 14.882C22.8049 14.5169 22.7519 14.1753 22.6577 13.8573C22.5164 13.3449 22.2808 12.8914 21.951 12.5204C21.9451 12.5145 21.9451 12.5145 21.9392 12.5086C21.415 11.9197 20.6848 11.584 19.9427 11.584C19.1947 11.584 18.5057 11.9079 18.0051 12.5027C17.5104 13.0916 17.2454 13.8985 17.2336 14.8466C17.216 16.2954 17.3337 17.6676 17.5811 18.9337C17.6046 19.0339 17.6224 19.134 17.6459 19.2341C17.8932 20.3825 18.2584 21.472 18.7295 22.4849C18.1759 23.6098 17.6164 24.5815 17.2277 25.2411C16.9332 25.7417 16.6093 26.2659 16.2736 26.79C14.7601 27.0609 13.4762 27.3907 12.3573 27.803C10.8438 28.3507 9.63058 29.0573 8.75894 29.8995C8.19355 30.4413 7.81073 31.0185 7.6223 31.6192C7.42206 32.2376 7.43386 32.8559 7.65761 33.4095C7.8637 33.9219 8.23472 34.3518 8.72948 34.6463C8.8473 34.717 8.97097 34.7758 9.1005 34.8288C9.47745 34.982 9.88964 35.0644 10.3196 35.0644C11.3149 35.0644 12.3396 34.6345 13.2053 33.863C14.8189 32.4201 16.4856 30.0998 17.4691 28.6333C18.2759 28.5096 19.1534 28.4036 20.1428 28.2976C21.3089 28.1798 22.3396 28.1091 23.276 28.0737C23.5646 28.3329 23.8414 28.5802 24.1064 28.8158C25.5787 30.1291 26.6976 31.0773 27.7106 31.7427C27.7106 31.7486 27.7164 31.7486 27.7224 31.7486C28.1228 32.0136 28.5057 32.2315 28.8885 32.4082C29.3184 32.6084 29.7542 32.7145 30.2017 32.7145C30.7671 32.7145 31.2971 32.5437 31.7389 32.2316C32.1864 31.9077 32.5103 31.4424 32.6576 30.9183C32.8284 30.2883 32.7283 29.5875 32.375 28.9573ZM19.3538 17.1612C19.2714 16.4309 19.236 15.6712 19.2478 14.8702C19.2596 14.1105 19.5364 13.5981 19.9427 13.5981C20.2489 13.5981 20.5728 13.8749 20.72 14.4049C20.7613 14.5639 20.7907 14.7465 20.7966 14.9526C20.8084 15.1999 20.8025 15.4591 20.7907 15.7241C20.7554 16.472 20.6258 17.267 20.4021 18.121C20.2666 18.6687 20.09 19.24 19.8721 19.8348C19.6247 18.9986 19.448 18.1093 19.3538 17.1612ZM9.5305 32.6616C9.43034 32.4143 9.5423 31.9373 10.1548 31.3484C11.0912 30.4532 12.5576 29.7465 14.6012 29.2105C14.2125 29.7405 13.8297 30.2235 13.4587 30.6652C12.8933 31.3483 12.3515 31.9255 11.8627 32.3612C11.4446 32.7381 10.9852 32.9737 10.5494 33.0327C10.4728 33.0445 10.3963 33.0503 10.3197 33.0503C9.93683 33.0504 9.62472 32.8973 9.5305 32.6616ZM18.9415 26.4014L18.9828 26.3366L18.918 26.3484C18.9298 26.319 18.9475 26.2895 18.9651 26.266C19.2125 25.8479 19.5246 25.312 19.8603 24.6936L19.8897 24.7584L19.9663 24.5994C20.2136 24.9527 20.4846 25.3002 20.7672 25.6359C20.9027 25.7948 21.044 25.948 21.1853 26.1011L21.0911 26.107L21.1735 26.1835C20.9321 26.2012 20.6789 26.2248 20.4256 26.2483C20.2666 26.2659 20.1017 26.2777 19.9368 26.2954C19.5953 26.3307 19.2596 26.3661 18.9415 26.4014ZM28.8532 30.0763C28.1523 29.6287 27.3691 28.9985 26.4032 28.1563C27.7754 28.2977 28.8532 28.598 29.6188 29.0456C29.9545 29.24 30.2077 29.4402 30.3785 29.6345C30.6611 29.9348 30.7613 30.2058 30.7082 30.3884C30.6611 30.5709 30.455 30.6946 30.2017 30.6946C30.0545 30.6946 29.9014 30.6593 29.7424 30.5827C29.4714 30.4532 29.1888 30.2941 28.8885 30.0998C28.8767 30.0998 28.865 30.088 28.8532 30.0763Z" fill="#F2F2F2"/>
</svg>
