<svg width="24" height="24" viewBox="0 0 24 24" fill="none" xmlns="http://www.w3.org/2000/svg">
<path d="M3.5 18.9854V20.5001H5.01472C6.24097 20.5001 6.8541 20.5001 7.40541 20.2717C7.95673 20.0434 8.39027 19.6098 9.25736 18.7427L19.1213 8.87877C20.0039 7.99621 20.4451 7.55492 20.4939 7.01334C20.502 6.92381 20.502 6.83373 20.4939 6.7442C20.4451 6.20262 20.0039 5.76133 19.1213 4.87877C18.2387 3.99621 17.7974 3.55492 17.2559 3.50614C17.1663 3.49807 17.0763 3.49807 16.9867 3.50614C16.4451 3.55492 16.0039 3.99621 15.1213 4.87877L5.25736 14.7427C4.39027 15.6098 3.95673 16.0434 3.72836 16.5947C3.5 17.146 3.5 17.7591 3.5 18.9854Z" stroke="#292929" stroke-width="1.5" stroke-linecap="round" stroke-linejoin="round"/>
<path d="M13.5 6.50009L17.5 10.5001" stroke="#292929" stroke-width="1.5" stroke-linecap="round" stroke-linejoin="round"/>
</svg>
