<svg width="20" height="20" viewBox="0 0 20 20" fill="none" xmlns="http://www.w3.org/2000/svg">
<path d="M11.8294 10.8125L10.6088 1.875H10.5175C8.38655 1.87862 6.34369 2.72572 4.83547 4.23113C3.32725 5.73653 2.47635 7.77781 2.46875 9.90875V10L11.8294 10.8125Z" fill="#ED6C47"/>
<path d="M10.7006 1.875H10.6094V10L14.6788 11.625L18.7487 10V9.90875C18.7412 7.77792 17.8903 5.73673 16.3823 4.23135C14.8742 2.72596 12.8315 1.87879 10.7006 1.875Z" fill="#FF8F6B"/>
<path d="M18.7481 10V10.0894C18.7402 12.2206 17.8891 14.2621 16.3807 15.7677C14.8724 17.2734 12.8294 18.1209 10.6981 18.125H10.5188C8.38761 18.1206 6.34482 17.273 4.83652 15.7674C3.32823 14.2618 2.477 12.2205 2.46875 10.0894V10H18.7481Z" fill="#D35230"/>
<path opacity="0.1" d="M11.0156 5.86813V14.5375C11.0145 14.685 10.9699 14.8289 10.8874 14.9512C10.8049 15.0735 10.6882 15.1687 10.5519 15.225C10.4629 15.2625 10.3672 15.2818 10.2706 15.2819H4.39001C4.27626 15.1519 4.16626 15.0138 4.06438 14.8756C3.02768 13.4956 2.46767 11.816 2.46876 10.09V9.91125C2.46679 8.35433 2.92256 6.83119 3.77938 5.53125C3.86876 5.39313 3.96251 5.255 4.06438 5.125H10.2706C10.4675 5.1263 10.6559 5.20496 10.7953 5.34399C10.9347 5.48301 11.0138 5.67127 11.0156 5.86813Z" fill="black"/>
<path opacity="0.2" d="M10.6088 6.275V14.9444C10.6087 15.0406 10.5894 15.1358 10.5519 15.2244C10.4955 15.3606 10.4002 15.4772 10.2779 15.5595C10.1557 15.6419 10.0118 15.6864 9.86438 15.6875H4.76063C4.63188 15.5567 4.50834 15.4213 4.39001 15.2813C4.27626 15.1513 4.16626 15.0131 4.06438 14.875C3.02768 13.495 2.46767 11.8154 2.46876 10.0894V9.91062C2.46691 8.35392 2.92268 6.83101 3.77938 5.53125H9.86375C10.0607 5.53256 10.2493 5.6113 10.3887 5.75046C10.5281 5.88962 10.6071 6.07804 10.6088 6.275Z" fill="black"/>
<path opacity="0.2" d="M10.6088 6.275V14.1319C10.607 14.3287 10.5278 14.517 10.3884 14.656C10.2491 14.795 10.0606 14.8737 9.86375 14.875H4.06438C3.02768 13.495 2.46767 11.8154 2.46876 10.0894V9.91062C2.46691 8.35392 2.92268 6.83101 3.77938 5.53125H9.86375C10.0607 5.53256 10.2493 5.6113 10.3887 5.75046C10.5281 5.88962 10.6071 6.07804 10.6088 6.275Z" fill="black"/>
<path opacity="0.2" d="M10.2019 6.275V14.1319C10.2001 14.3287 10.121 14.517 9.98157 14.656C9.84219 14.795 9.65374 14.8737 9.45688 14.875H4.06438C3.02768 13.495 2.46767 11.8154 2.46876 10.0894V9.91062C2.46691 8.35392 2.92268 6.83101 3.77938 5.53125H9.45688C9.65385 5.53256 9.84239 5.6113 9.98179 5.75046C10.1212 5.88962 10.2002 6.07804 10.2019 6.275Z" fill="black"/>
<path d="M1.99625 5.53125H9.4575C9.65514 5.53109 9.84477 5.6094 9.9847 5.74898C10.1246 5.88856 10.2034 6.07798 10.2038 6.27563V13.7244C10.2034 13.922 10.1246 14.1114 9.9847 14.251C9.84477 14.3906 9.65514 14.4689 9.4575 14.4688H1.99625C1.89836 14.4689 1.8014 14.4498 1.71091 14.4125C1.62042 14.3751 1.53817 14.3203 1.46887 14.2512C1.39956 14.1821 1.34456 14.1 1.30701 14.0096C1.26945 13.9192 1.25008 13.8223 1.25 13.7244V6.27563C1.25008 6.17774 1.26945 6.08083 1.30701 5.99043C1.34456 5.90003 1.39956 5.81792 1.46887 5.74879C1.53817 5.67966 1.62042 5.62487 1.71091 5.58754C1.8014 5.55021 1.89836 5.53109 1.99625 5.53125Z" fill="url(#paint0_linear_772_3412)"/>
<path d="M5.80594 7.51831C6.29165 7.48564 6.77317 7.62651 7.16469 7.91581C7.32567 8.05911 7.45189 8.23721 7.53376 8.43658C7.61563 8.63595 7.651 8.85135 7.63719 9.06643C7.64265 9.36941 7.5618 9.66769 7.40406 9.92643C7.24448 10.181 7.0146 10.384 6.74219 10.5108C6.43093 10.6552 6.09084 10.7265 5.74781 10.7196H4.80219V12.4696H3.83594V7.51831H5.80594ZM4.80156 9.96331H5.63344C5.89719 9.98232 6.15881 9.90431 6.36906 9.74393C6.45504 9.66192 6.52198 9.56206 6.56518 9.45137C6.60837 9.34068 6.62677 9.22187 6.61906 9.10331C6.61906 8.55789 6.30135 8.28497 5.66594 8.28456H4.80156V9.96331Z" fill="white"/>
<defs>
<linearGradient id="paint0_linear_772_3412" x1="2.80875" y1="4.94625" x2="8.645" y2="15.0538" gradientUnits="userSpaceOnUse">
<stop stop-color="#CA4C28"/>
<stop offset="0.5" stop-color="#C5401E"/>
<stop offset="1" stop-color="#B62F14"/>
</linearGradient>
</defs>
</svg>
