<svg width="20" height="20" viewBox="0 0 20 20" fill="none" xmlns="http://www.w3.org/2000/svg">
<path d="M9.1355 19.352H10.8616C11.5708 19.352 12.1262 18.9162 12.2886 18.2412L12.6389 16.7287L12.861 16.6434L14.177 17.4551C14.7752 17.831 15.4758 17.7371 15.9714 17.2329L17.1678 16.0366C17.6804 15.5325 17.7659 14.8317 17.3899 14.2422L16.5782 12.9349L16.655 12.7212L18.1675 12.3708C18.834 12.2 19.2783 11.6445 19.2783 10.9438V9.26049C19.2783 8.55982 18.8425 8.00439 18.1675 7.83349L16.6722 7.47461L16.5867 7.25244L17.3984 5.94507C17.7744 5.35547 17.6804 4.66333 17.1763 4.14209L15.98 2.94581C15.4844 2.45019 14.7837 2.35621 14.194 2.72363L12.8782 3.52686L12.6389 3.43286L12.2886 1.92041C12.1262 1.24536 11.5708 0.80957 10.8616 0.80957H9.1355C8.41772 0.80957 7.87085 1.24536 7.7085 1.92041L7.35816 3.43286L7.1189 3.52686L5.80297 2.72363C5.20483 2.35621 4.50415 2.45019 4.00855 2.94581L2.81226 4.14209C2.30811 4.66333 2.21411 5.35547 2.59009 5.94507L3.4104 7.25244L3.31641 7.47461L1.82959 7.83349C1.146 8.00439 0.71875 8.55982 0.71875 9.26049V10.9438C0.71875 11.6445 1.15454 12.2 1.82959 12.3708L3.3335 12.7212L3.41895 12.9349L2.59864 14.2422C2.22266 14.8317 2.31665 15.5325 2.8208 16.0366L4.01709 17.2329C4.52123 17.7371 5.22192 17.831 5.81152 17.4551L7.12744 16.6434L7.35816 16.7287L7.7085 18.2412C7.87085 18.9162 8.41772 19.352 9.1355 19.352ZM9.34057 17.8054C9.19531 17.8054 9.12695 17.7371 9.10132 17.6089L8.59717 15.5069C8.0503 15.3786 7.5376 15.165 7.1189 14.9001L5.2732 16.0366C5.17066 16.105 5.06811 16.0965 4.95704 15.9939L4.05127 15.0881C3.95727 14.9941 3.94873 14.8916 4.02563 14.7805L5.16211 12.9349C4.92285 12.5332 4.69214 12.0205 4.56396 11.4822L2.45337 10.978C2.3252 10.9524 2.26539 10.884 2.26539 10.7388V9.45703C2.26539 9.30322 2.3252 9.24341 2.45337 9.20923L4.56396 8.71362C4.69214 8.14112 4.93994 7.61133 5.14502 7.24389L4.01709 5.40674C3.94019 5.28711 3.94018 5.18457 4.04272 5.08203L4.94849 4.18482C5.05957 4.09082 5.14502 4.07373 5.2732 4.14209L7.11035 5.26147C7.49487 5.03076 8.05884 4.79151 8.59717 4.65478L9.10132 2.55273C9.12695 2.42456 9.19531 2.35621 9.34057 2.35621H10.6565C10.8018 2.35621 10.8701 2.41602 10.8872 2.55273L11.3999 4.67187C11.9553 4.80004 12.4595 5.03076 12.8782 5.27002L14.7153 4.15063C14.8435 4.08227 14.9289 4.09082 15.0315 4.19336L15.9458 5.09058C16.0483 5.18457 16.0483 5.28711 15.9714 5.40674L14.8435 7.24389C15.0485 7.61133 15.3049 8.14112 15.4332 8.71362L17.5352 9.20923C17.6719 9.24341 17.7317 9.30322 17.7317 9.45703V10.7388C17.7317 10.884 17.6633 10.9524 17.5352 10.978L15.4245 11.4822C15.2964 12.0205 15.0657 12.5332 14.8349 12.9349L15.9629 14.7805C16.0313 14.8916 16.0313 14.9941 15.9373 15.0796L15.0315 15.9939C14.9204 16.0965 14.8179 16.105 14.7153 16.0366L12.8697 14.9001C12.4509 15.165 11.9639 15.3786 11.3999 15.5069L10.8872 17.6089C10.8701 17.7456 10.8018 17.8054 10.6565 17.8054H9.34057ZM9.99854 13.3279C11.7759 13.3279 13.237 11.8667 13.237 10.0808C13.237 8.31201 11.7759 6.85083 9.99854 6.85083C8.22119 6.85083 6.75146 8.31201 6.75146 10.0808C6.75146 11.8667 8.21265 13.3279 9.99854 13.3279ZM9.99854 11.8667C9.02441 11.8667 8.22119 11.0635 8.22119 10.0808C8.22119 9.11523 9.02441 8.32056 9.99854 8.32056C10.9556 8.32056 11.7502 9.11523 11.7502 10.0808C11.7502 11.0549 10.9556 11.8667 9.99854 11.8667Z" fill="#9D9D9D"/>
</svg>
