<svg width="16" height="16" viewBox="0 0 16 16" fill="none" xmlns="http://www.w3.org/2000/svg">
<path d="M8.66536 4.66667C8.66536 6.13943 7.47143 7.33333 5.9987 7.33333C4.52594 7.33333 3.33203 6.13943 3.33203 4.66667C3.33203 3.19391 4.52594 2 5.9987 2C7.47143 2 8.66536 3.19391 8.66536 4.66667Z" fill="#9D9D9D" stroke="#9D9D9D"/>
<path d="M10 7.33333C11.4727 7.33333 12.6667 6.13943 12.6667 4.66667C12.6667 3.19391 11.4727 2 10 2" stroke="#9D9D9D" stroke-linecap="round" stroke-linejoin="round"/>
<path d="M7.33203 9.33301H4.66536C2.82442 9.33301 1.33203 10.8254 1.33203 12.6663C1.33203 13.4027 1.92898 13.9997 2.66536 13.9997H9.33203C10.0684 13.9997 10.6654 13.4027 10.6654 12.6663C10.6654 10.8254 9.17296 9.33301 7.33203 9.33301Z" fill="#9D9D9D" stroke="#9D9D9D" stroke-linejoin="round"/>
<path d="M11.332 9.33301C13.173 9.33301 14.6654 10.8254 14.6654 12.6663C14.6654 13.4027 14.0684 13.9997 13.332 13.9997H12.332" stroke="#9D9D9D" stroke-linecap="round" stroke-linejoin="round"/>
</svg>
