<svg width="20" height="20" viewBox="0 0 20 20" fill="none" xmlns="http://www.w3.org/2000/svg">
<path d="M17.3118 14.9999C17.9362 14.9999 18.4329 14.607 18.8788 14.0575C19.7917 12.9327 18.2929 12.0339 17.7212 11.5937C17.1402 11.1462 16.4913 10.8927 15.8335 10.8332M15.0002 9.16654C16.1507 9.16654 17.0835 8.2338 17.0835 7.08321C17.0835 5.93262 16.1507 4.99988 15.0002 4.99988" stroke="#9D9D9D" stroke-width="1.25" stroke-linecap="round"/>
<path d="M2.68847 14.9999C2.06404 14.9999 1.56739 14.607 1.12145 14.0575C0.208572 12.9327 1.70739 12.0339 2.27903 11.5937C2.86014 11.1462 3.50898 10.8927 4.16683 10.8332M4.5835 9.16654C3.43291 9.16654 2.50017 8.2338 2.50017 7.08321C2.50017 5.93262 3.43291 4.99988 4.5835 4.99988" stroke="#9D9D9D" stroke-width="1.25" stroke-linecap="round"/>
<path d="M6.73667 12.592C5.88518 13.1185 3.65265 14.1936 5.01242 15.5388C5.67665 16.196 6.41643 16.666 7.34652 16.666H12.6538C13.5839 16.666 14.3237 16.196 14.9879 15.5388C16.3477 14.1936 14.1152 13.1185 13.2637 12.592C11.2669 11.3573 8.73335 11.3573 6.73667 12.592Z" stroke="#9D9D9D" stroke-width="1.25" stroke-linecap="round" stroke-linejoin="round"/>
<path d="M12.9168 6.25065C12.9168 7.86148 11.611 9.16732 10.0002 9.16732C8.38935 9.16732 7.0835 7.86148 7.0835 6.25065C7.0835 4.63982 8.38935 3.33398 10.0002 3.33398C11.611 3.33398 12.9168 4.63982 12.9168 6.25065Z" stroke="#9D9D9D" stroke-width="1.25"/>
</svg>
